<svg xmlns="http://www.w3.org/2000/svg" xmlns:xlink="http://www.w3.org/1999/xlink" viewBox="0 0 72.38 36.73"><defs><style>.cls-1{fill:url(#Безымянный_градиент_74);}.cls-2{fill:#11bd00;}.cls-3{fill:url(#Безымянный_градиент_74-2);}.cls-4{fill:#6f3700;}.cls-5{fill:url(#Безымянный_градиент_8);}.cls-6{fill:#381c00;}.cls-7{fill:#d7a371;}.cls-8{fill:url(#Безымянный_градиент_74-3);}.cls-9{fill:#3bbd00;}.cls-10{fill:url(#Безымянный_градиент_66);}.cls-11{fill:url(#Безымянный_градиент_103);}.cls-12{fill:#ffc42d;}.cls-13{fill:#f5ffc1;}.cls-14{fill:url(#Безымянный_градиент_87);}.cls-15{fill:url(#Безымянный_градиент_69);}.cls-16{fill:url(#Безымянный_градиент_79);}</style><linearGradient id="Безымянный_градиент_74" x1="32.72" y1="26.39" x2="41.49" y2="16.34" gradientTransform="translate(-21.13 -8.25) rotate(19.5)" gradientUnits="userSpaceOnUse"><stop offset="0" stop-color="#66f200"/><stop offset="1" stop-color="#002d06"/></linearGradient><linearGradient id="Безымянный_градиент_74-2" x1="31.99" y1="10.21" x2="26.2" y2="7.08" gradientTransform="matrix(1, 0, 0, 1, 0, 0)" xlink:href="#Безымянный_градиент_74"/><linearGradient id="Безымянный_градиент_8" x1="49.36" y1="15.08" x2="49.3" y2="30.18" gradientUnits="userSpaceOnUse"><stop offset="0" stop-color="#cd7500"/><stop offset="1" stop-color="#7f4800"/></linearGradient><linearGradient id="Безымянный_градиент_74-3" x1="27" y1="36.29" x2="30.75" y2="29.08" gradientTransform="matrix(1, 0, 0, 1, 0, 0)" xlink:href="#Безымянный_градиент_74"/><linearGradient id="Безымянный_градиент_66" x1="9.71" y1="13.1" x2="24.84" y2="30.73" gradientUnits="userSpaceOnUse"><stop offset="0" stop-color="#fff556"/><stop offset="1" stop-color="#cd7900"/></linearGradient><linearGradient id="Безымянный_градиент_103" x1="24.76" y1="32.46" x2="11.02" y2="13.3" gradientUnits="userSpaceOnUse"><stop offset="0" stop-color="#d19200"/><stop offset="1" stop-color="#c57d00"/></linearGradient><linearGradient id="Безымянный_градиент_87" x1="14.8" y1="18.26" x2="22.34" y2="30.02" gradientUnits="userSpaceOnUse"><stop offset="0" stop-color="#fff88b"/><stop offset="1" stop-color="#5a3100"/></linearGradient><linearGradient id="Безымянный_градиент_69" x1="14.07" y1="16.62" x2="23.59" y2="33.1" gradientUnits="userSpaceOnUse"><stop offset="0" stop-color="#fff88b"/><stop offset="1" stop-color="#4a3000"/></linearGradient><linearGradient id="Безымянный_градиент_79" x1="29.1" y1="26.96" x2="11.79" y2="19.1" gradientUnits="userSpaceOnUse"><stop offset="0" stop-color="#fff88b"/><stop offset="1" stop-color="#947400"/></linearGradient></defs><title>Ресурс 3</title><g id="Слой_2" data-name="Слой 2"><g id="Слой_2-2" data-name="Слой 2"><path class="cls-1" d="M1,6.56S-2.22,24.28,3,29.48c4.66,4.65,23,4.9,23,4.9s-3.53-10.49-6.13-13.84C16.2,15.86,1,6.56,1,6.56Z"/><path class="cls-2" d="M4.5,13.85A61.42,61.42,0,0,1,1,6.56S16.7,16.07,20.34,20.76C22.94,24.1,26,34.38,26,34.38a26.06,26.06,0,0,1-3.74-1.6h0l-14.74-3,11.93,1.36h0a36,36,0,0,1-4.52-3.61l-7.5-.81,5.84-.83c-1-1-1.88-2.05-2.74-3.11l-4.78,0,3.92-1.13c-.74-1-1.44-1.93-2.09-2.89l-3.31-.22L6.39,17c-.56-.88-1.07-1.73-1.54-2.55l-1.95.4Z"/><path class="cls-3" d="M33.76,0s-.92,12.08-4.45,14.4C26.15,16.46,16.41,13,16.41,13s3.42-6.07,5.28-7.71C24.31,2.95,33.76,0,33.76,0Z"/><path class="cls-2" d="M30.81,4a38.31,38.31,0,0,0,2.95-4S24,3,21.4,5.28c-1.87,1.64-5,7.67-5,7.67a11.63,11.63,0,0,0,2.22-.28h0l8.26,1-6.52-1.51h0a17.28,17.28,0,0,0,2.93-1.43l4.1,1-3-1.71c.66-.46,1.3-.95,1.91-1.46l2.53,1L26.94,8c.54-.47,1-1,1.53-1.45l1.79.52-.92-1.42c.42-.46.82-.9,1.19-1.34l1,.65Z"/><path class="cls-4" d="M72.38,23.19A23.1,23.1,0,0,0,69.82,12.6H28.53a23.2,23.2,0,0,0-1.74,16.7H71.56A23.22,23.22,0,0,0,72.38,23.19Z"/><path class="cls-5" d="M71.2,21a12.82,12.82,0,0,0-1.85-6.48,1.33,1.33,0,0,0-1.18-.73H30.3a1.31,1.31,0,0,0-1.19.75,18.19,18.19,0,0,0-1.25,11.32,1.34,1.34,0,0,0,1.26,1.06L69.35,28.1A1.32,1.32,0,0,0,70.7,27,48.27,48.27,0,0,0,71.2,21Z"/><path class="cls-4" d="M27.58,14.7l44,2.4L72,19.2c-18.89-2.13-44.89-3.32-44.89-3.32Z"/><polygon class="cls-6" points="28.98 14.77 70.53 17.04 71.2 17.67 28.47 15.06 28.98 14.77"/><polygon class="cls-4" points="26.31 19.2 35.41 20.2 26.16 20.2 26.31 19.2"/><polygon class="cls-4" points="72.35 24.38 39.48 24.73 72.27 25.48 72.35 24.38"/><polygon class="cls-7" points="35.35 20.2 27.55 20.2 27.51 20.74 35.35 20.2"/><polygon class="cls-7" points="39.48 24.73 70.9 25.44 70.85 25.91 39.48 24.73"/><path class="cls-8" d="M40.51,32.64S32.07,38,28.29,36.43C24.92,35,20.92,25.66,20.92,25.66s6.14-.4,8.41.23C32.51,26.77,40.51,32.64,40.51,32.64Z"/><path class="cls-9" d="M36,32.36a34.16,34.16,0,0,0,4.49.28s-8.21-6.08-11.39-7c-2.27-.63-8.19,0-8.19,0a14.48,14.48,0,0,0,1.61,1.59h0l4.67,6.94L24,28.34h0A20,20,0,0,0,26.8,29.9l2,3.69L28,30.41c.72.29,1.45.53,2.18.75l1,2.47-.25-2.25c.65.18,1.3.33,1.93.46l.81,1.65L34,32.06c.57.1,1.12.18,1.64.25l.2,1.09Z"/><circle class="cls-10" cx="16.82" cy="21.39" r="14.7"/><circle class="cls-11" cx="16.82" cy="21.39" r="11.87"/><path class="cls-12" d="M17.73,12.49l2.1,4.26a1,1,0,0,0,.76.56l4.7.68a1,1,0,0,1,.56,1.73L22.46,23a1,1,0,0,0-.29.9l.8,4.68a1,1,0,0,1-1.47,1.07l-4.2-2.21a1,1,0,0,0-.95,0l-4.2,2.21a1,1,0,0,1-1.47-1.07l.8-4.68a1,1,0,0,0-.29-.9l-3.4-3.31A1,1,0,0,1,8.34,18l4.7-.68a1,1,0,0,0,.76-.56l2.1-4.26A1,1,0,0,1,17.73,12.49Z"/><polygon class="cls-13" points="19.31 15.7 8.93 20.85 9.83 21.73 19.84 16.76 19.31 15.7"/><path class="cls-13" d="M25.3,18l-2.18-.32L11.45,23.48a1,1,0,0,1,0,.47L11,26.71,26.15,19.2A1,1,0,0,0,25.3,18Z"/><path class="cls-14" d="M22,30.06a1.27,1.27,0,0,1-.59-.15l-4.2-2.21a.76.76,0,0,0-.71,0l-4.2,2.21a1.27,1.27,0,0,1-1.84-1.34l.8-4.68a.76.76,0,0,0-.22-.67L7.6,19.9a1.27,1.27,0,0,1,.7-2.17l4.7-.68a.76.76,0,0,0,.57-.42l2.1-4.26a1.27,1.27,0,0,1,2.28,0l2.1,4.26a.76.76,0,0,0,.57.42l4.7.68A1.27,1.27,0,0,1,26,19.9l-3.4,3.31a.76.76,0,0,0-.22.67l.8,4.68A1.27,1.27,0,0,1,22,30.06Zm-5.15-3a1.27,1.27,0,0,1,.59.15l4.2,2.21a.76.76,0,0,0,1.1-.8L21.92,24a1.27,1.27,0,0,1,.37-1.13l3.4-3.31a.76.76,0,0,0-.42-1.3l-4.7-.68a1.27,1.27,0,0,1-1-.7L17.5,12.6a.76.76,0,0,0-1.36,0L14,16.86a1.27,1.27,0,0,1-1,.7l-4.7.68A.76.76,0,0,0,8,19.54l3.4,3.31A1.27,1.27,0,0,1,11.73,24l-.8,4.68a.76.76,0,0,0,1.1.8l4.2-2.21A1.27,1.27,0,0,1,16.82,27.11Z"/><path class="cls-13" d="M27.14,15.54l2.54-1.28a14.72,14.72,0,0,0-1.25-1.89l-2.6,1.31A11.93,11.93,0,0,1,27.14,15.54Z"/><path class="cls-13" d="M28.69,21.4a11.83,11.83,0,0,1-.41,3.08l3.17-1.6q.07-.73.07-1.48a14.68,14.68,0,0,0-.74-4.62l-2.57,1.29A11.83,11.83,0,0,1,28.69,21.4Z"/><path class="cls-13" d="M5.26,24.05,2.66,25.36a14.6,14.6,0,0,0,.78,2.13L6,26.21A11.77,11.77,0,0,1,5.26,24.05Z"/><path class="cls-13" d="M7.38,28.57l-2.57,1.3A14.77,14.77,0,0,0,9.31,34l3.17-1.6A11.92,11.92,0,0,1,7.38,28.57Z"/><path class="cls-15" d="M16.82,36.35a15,15,0,1,1,15-15A15,15,0,0,1,16.82,36.35Zm0-29.4A14.45,14.45,0,1,0,31.27,21.39,14.46,14.46,0,0,0,16.82,6.94Z"/><path class="cls-16" d="M16.82,33.26A11.87,11.87,0,1,1,28.69,21.39,11.88,11.88,0,0,1,16.82,33.26Zm0-23.23A11.37,11.37,0,1,0,28.19,21.39,11.38,11.38,0,0,0,16.82,10Z"/></g></g></svg>