<svg xmlns="http://www.w3.org/2000/svg" xmlns:xlink="http://www.w3.org/1999/xlink" viewBox="0 0 62.98 29.03"><defs><style>.cls-1{fill:url(#Безымянный_градиент_74);}.cls-2{fill:#11bd00;}.cls-3{fill:url(#Безымянный_градиент_74-2);}.cls-4{fill:#6f3700;}.cls-5{fill:url(#Безымянный_градиент_8);}.cls-6{fill:#381c00;}.cls-7{fill:#d7a371;}.cls-8{fill:url(#Безымянный_градиент_74-3);}.cls-9{fill:#3bbd00;}</style><linearGradient id="Безымянный_градиент_74" x1="4.52" y1="17.7" x2="10.23" y2="11.16" gradientUnits="userSpaceOnUse"><stop offset="0" stop-color="#66f200"/><stop offset="1" stop-color="#002d06"/></linearGradient><linearGradient id="Безымянный_градиент_74-2" x1="32.92" y1="10.21" x2="27.13" y2="7.08" xlink:href="#Безымянный_градиент_74"/><linearGradient id="Безымянный_градиент_8" x1="39.96" y1="10" x2="39.9" y2="25.11" gradientUnits="userSpaceOnUse"><stop offset="0" stop-color="#cd7500"/><stop offset="1" stop-color="#7f4800"/></linearGradient><linearGradient id="Безымянный_градиент_74-3" x1="19.03" y1="28.58" x2="22.78" y2="21.38" xlink:href="#Безымянный_градиент_74"/></defs><title>Ресурс 1</title><g id="Слой_2" data-name="Слой 2"><g id="Слой_2-2" data-name="Слой 2"><path class="cls-1" d="M0,4.81S1.9,16.37,6.23,18.43c3.87,1.84,15.16-2,15.16-2s-4.45-5.67-6.77-7.16C11.37,7.2,0,4.81,0,4.81Z"/><path class="cls-2" d="M3.75,8.52A40,40,0,0,1,0,4.81s11.72,2.41,15,4.5c2.32,1.49,6.41,7.14,6.41,7.14a17,17,0,0,1-2.64-.17h0L9,17.63l7.62-1.76h0a23.46,23.46,0,0,1-3.56-1.23L8.32,15.76,11.72,14c-.81-.41-1.6-.85-2.36-1.31L6.44,13.74,8.6,12.19c-.67-.43-1.3-.87-1.91-1.32l-2.08.58L5.6,10c-.53-.42-1-.83-1.5-1.23L3,9.49Z"/><path class="cls-3" d="M34.68,0s-.92,12.08-4.45,14.4C27.08,16.46,17.34,13,17.34,13s3.42-6.07,5.28-7.71C25.24,2.95,34.68,0,34.68,0Z"/><path class="cls-2" d="M31.74,4a38.32,38.32,0,0,0,2.95-4S24.94,3,22.32,5.28c-1.87,1.64-5,7.67-5,7.67a11.65,11.65,0,0,0,2.22-.28h0l8.26,1-6.52-1.51h0a17.28,17.28,0,0,0,2.93-1.43l4.1,1-3-1.71c.66-.46,1.3-.95,1.91-1.46l2.53,1L27.87,8c.54-.47,1-1,1.53-1.45l1.79.52-.92-1.42c.42-.46.82-.9,1.19-1.34l1,.65Z"/><path class="cls-4" d="M63,18.11A23.1,23.1,0,0,0,60.42,7.52H19.13a23.2,23.2,0,0,0-1.74,16.7H62.16A23.22,23.22,0,0,0,63,18.11Z"/><path class="cls-5" d="M61.8,15.87A12.82,12.82,0,0,0,60,9.39a1.33,1.33,0,0,0-1.18-.73H20.9a1.31,1.31,0,0,0-1.2.75,18.19,18.19,0,0,0-1.25,11.32,1.34,1.34,0,0,0,1.26,1.06L59.95,23a1.32,1.32,0,0,0,1.35-1.11A48.27,48.27,0,0,0,61.8,15.87Z"/><path class="cls-4" d="M18.18,9.62l44,2.4.47,2.1C43.75,12,17.75,10.8,17.75,10.8Z"/><polygon class="cls-6" points="19.58 9.7 61.13 11.97 61.8 12.59 19.07 9.99 19.58 9.7"/><polygon class="cls-4" points="16.91 14.12 26.01 15.13 16.76 15.13 16.91 14.12"/><polygon class="cls-4" points="62.95 19.3 30.09 19.65 62.87 20.4 62.95 19.3"/><polygon class="cls-7" points="25.95 15.13 18.15 15.13 18.11 15.66 25.95 15.13"/><polygon class="cls-7" points="30.09 19.65 61.5 20.37 61.45 20.84 30.09 19.65"/><path class="cls-8" d="M32.53,24.94s-8.44,5.38-12.21,3.79C16.95,27.32,12.95,18,12.95,18s6.14-.4,8.41.23C24.53,19.07,32.53,24.94,32.53,24.94Z"/><path class="cls-9" d="M28,24.66a34.15,34.15,0,0,0,4.49.28s-8.21-6.08-11.39-7c-2.27-.63-8.19,0-8.19,0a14.47,14.47,0,0,0,1.61,1.59h0l4.67,6.94L16,20.64h0a20,20,0,0,0,2.81,1.56l2,3.69L20,22.71c.72.29,1.45.53,2.18.75l1,2.47-.25-2.25c.65.18,1.3.33,1.93.46l.81,1.66L26,24.36c.57.1,1.12.18,1.64.25l.2,1.09Z"/></g></g></svg>