<svg xmlns="http://www.w3.org/2000/svg" xmlns:xlink="http://www.w3.org/1999/xlink" viewBox="0 0 72.38 36.73"><defs><style>.cls-1{fill:url(#Безымянный_градиент_74);}.cls-2{fill:#11bd00;}.cls-3{fill:url(#Безымянный_градиент_74-2);}.cls-4{fill:#6f3700;}.cls-5{fill:url(#Безымянный_градиент_8);}.cls-6{fill:#381c00;}.cls-7{fill:#d7a371;}.cls-8{fill:url(#Безымянный_градиент_74-3);}.cls-9{fill:#3bbd00;}.cls-10{fill:url(#Безымянный_градиент_267);}.cls-11{fill:#ff3200;}.cls-12{fill:url(#Безымянный_градиент_146);}</style><linearGradient id="Безымянный_градиент_74" x1="16.93" y1="29.1" x2="25.7" y2="19.05" gradientTransform="translate(-5.34 -5.53) rotate(19.5)" gradientUnits="userSpaceOnUse"><stop offset="0" stop-color="#66f200"/><stop offset="1" stop-color="#002d06"/></linearGradient><linearGradient id="Безымянный_градиент_74-2" x1="31.99" y1="10.21" x2="26.2" y2="7.08" gradientTransform="matrix(1, 0, 0, 1, 0, 0)" xlink:href="#Безымянный_градиент_74"/><linearGradient id="Безымянный_градиент_8" x1="49.36" y1="15.08" x2="49.3" y2="30.18" gradientUnits="userSpaceOnUse"><stop offset="0" stop-color="#cd7500"/><stop offset="1" stop-color="#7f4800"/></linearGradient><linearGradient id="Безымянный_градиент_74-3" x1="27" y1="36.29" x2="30.75" y2="29.08" gradientTransform="matrix(1, 0, 0, 1, 0, 0)" xlink:href="#Безымянный_градиент_74"/><linearGradient id="Безымянный_градиент_267" x1="17.94" y1="10.12" x2="23.25" y2="33.74" gradientUnits="userSpaceOnUse"><stop offset="0" stop-color="#ff3618"/><stop offset="1" stop-color="#4a0025"/></linearGradient><linearGradient id="Безымянный_градиент_146" x1="15.9" y1="10.29" x2="24.41" y2="24.92" gradientUnits="userSpaceOnUse"><stop offset="0" stop-color="#ff8466"/><stop offset="1" stop-color="#66002a"/></linearGradient></defs><title>Ресурс 2</title><g id="Слой_2" data-name="Слой 2"><g id="Слой_2-2" data-name="Слой 2"><path class="cls-1" d="M1,6.56S-2.22,24.28,3,29.48c4.66,4.65,23,4.9,23,4.9s-3.53-10.49-6.13-13.84C16.2,15.86,1,6.56,1,6.56Z"/><path class="cls-2" d="M4.5,13.85A61.42,61.42,0,0,1,1,6.56S16.7,16.07,20.34,20.76C22.94,24.1,26,34.38,26,34.38a26,26,0,0,1-3.74-1.6h0l-14.74-3,11.93,1.36h0a36,36,0,0,1-4.52-3.61l-7.5-.81,5.84-.83c-1-1-1.88-2.05-2.74-3.11l-4.78,0,3.92-1.13c-.74-1-1.44-1.93-2.09-2.89l-3.31-.22L6.39,17c-.56-.88-1.07-1.73-1.54-2.55l-1.95.4Z"/><path class="cls-3" d="M33.76,0s-.92,12.08-4.45,14.4C26.15,16.46,16.41,13,16.41,13s3.42-6.07,5.28-7.71C24.31,2.95,33.76,0,33.76,0Z"/><path class="cls-2" d="M30.81,4a38.32,38.32,0,0,0,2.95-4S24,3,21.4,5.28c-1.87,1.64-5,7.67-5,7.67a11.65,11.65,0,0,0,2.22-.28h0l8.26,1-6.52-1.51h0a17.28,17.28,0,0,0,2.93-1.43l4.1,1-3-1.71c.66-.46,1.3-.95,1.91-1.46l2.53,1L26.94,8c.54-.47,1-1,1.53-1.45l1.79.52-.92-1.42c.42-.46.82-.9,1.19-1.34l1,.65Z"/><path class="cls-4" d="M72.38,23.19A23.1,23.1,0,0,0,69.82,12.6H28.53a23.2,23.2,0,0,0-1.74,16.7H71.56A23.22,23.22,0,0,0,72.38,23.19Z"/><path class="cls-5" d="M71.2,20.95a12.82,12.82,0,0,0-1.85-6.48,1.33,1.33,0,0,0-1.18-.73H30.3a1.31,1.31,0,0,0-1.19.75,18.19,18.19,0,0,0-1.25,11.32,1.34,1.34,0,0,0,1.26,1.06L69.35,28.1A1.33,1.33,0,0,0,70.7,27,48.27,48.27,0,0,0,71.2,20.95Z"/><path class="cls-4" d="M27.58,14.7l44,2.4L72,19.2c-18.89-2.13-44.89-3.32-44.89-3.32Z"/><polygon class="cls-6" points="28.98 14.77 70.53 17.04 71.2 17.67 28.47 15.06 28.98 14.77"/><polygon class="cls-4" points="26.31 19.2 35.41 20.2 26.16 20.2 26.31 19.2"/><polygon class="cls-4" points="72.35 24.38 39.48 24.73 72.27 25.48 72.35 24.38"/><polygon class="cls-7" points="35.35 20.2 27.55 20.2 27.51 20.74 35.35 20.2"/><polygon class="cls-7" points="39.48 24.73 70.9 25.44 70.85 25.91 39.48 24.73"/><path class="cls-8" d="M40.51,32.64S32.07,38,28.29,36.43C24.92,35,20.92,25.66,20.92,25.66s6.14-.4,8.41.23C32.51,26.77,40.51,32.64,40.51,32.64Z"/><path class="cls-9" d="M36,32.36a34.15,34.15,0,0,0,4.49.28s-8.21-6.08-11.39-7c-2.27-.63-8.19,0-8.19,0a14.49,14.49,0,0,0,1.61,1.59h0l4.67,6.94L24,28.34h0A20,20,0,0,0,26.8,29.9l2,3.69L28,30.41c.72.29,1.45.53,2.18.75l1,2.47-.25-2.25c.65.18,1.3.33,1.93.46l.81,1.65L34,32.06c.57.1,1.12.18,1.64.25l.2,1.09Z"/><path class="cls-10" d="M34.74,19.61a7,7,0,0,0,.7-3.51,9.19,9.19,0,0,0-16.13-6,9.19,9.19,0,0,0-16.13,6S1.68,24,19.31,33.5C29.44,28,33.24,23,34.65,19.83Z"/><path class="cls-11" d="M19.31,9.86a9.19,9.19,0,0,0-16.13,6,6,6,0,0,0,.34,2.65A19.79,19.79,0,0,0,14,21.46c9.27,0,16.8-5.94,17.11-13.35A9.16,9.16,0,0,0,19.31,9.86Z"/><path class="cls-12" d="M19.32,33.94l-.2-.11C1.43,24.26,2.72,16.33,2.79,16A9.6,9.6,0,0,1,19.32,9.43a9.6,9.6,0,0,1,16.54,6.64h0a7.35,7.35,0,0,1-.73,3.67l-.07.16c-1.46,3.31-5.31,8.36-15.54,13.93ZM12.39,7.28A8.8,8.8,0,0,0,3.6,16.08c0,.15-1.16,7.74,15.72,16.94,9.88-5.42,13.59-10.26,15-13.38l.09-.2A6.78,6.78,0,0,0,35,16.14,8.79,8.79,0,0,0,19.62,10.3l-.31.35L19,10.3A8.79,8.79,0,0,0,12.39,7.28Z"/></g></g></svg>